<mxfile host="app.diagrams.net" agent="Mozilla/5.0 (Windows NT 10.0; Win64; x64; rv:133.0) Gecko/20100101 Firefox/133.0" version="26.0.2">
  <diagram name="Page-1" id="tnTNyKJoXWjOOZkgPt3-">
    <mxGraphModel dx="1194" dy="1885" grid="1" gridSize="10" guides="1" tooltips="1" connect="1" arrows="1" fold="1" page="1" pageScale="1" pageWidth="827" pageHeight="1169" math="0" shadow="0">
      <root>
        <mxCell id="0" />
        <mxCell id="1" parent="0" />
        <mxCell id="6cKIcrpC0chAMdCKNeQY-1" value="" style="whiteSpace=wrap;html=1;aspect=fixed;fillColor=#b1ddf0;strokeColor=#10739e;" parent="1" vertex="1">
          <mxGeometry x="100" y="-20" width="730" height="730" as="geometry" />
        </mxCell>
        <mxCell id="6cKIcrpC0chAMdCKNeQY-5" value="" style="endArrow=none;html=1;rounded=0;entryX=0.25;entryY=0;entryDx=0;entryDy=0;exitX=0.25;exitY=1;exitDx=0;exitDy=0;strokeColor=#FFFF66;" parent="1" source="6cKIcrpC0chAMdCKNeQY-1" target="6cKIcrpC0chAMdCKNeQY-1" edge="1">
          <mxGeometry width="50" height="50" relative="1" as="geometry">
            <mxPoint x="390" y="320" as="sourcePoint" />
            <mxPoint x="440" y="270" as="targetPoint" />
          </mxGeometry>
        </mxCell>
        <mxCell id="6cKIcrpC0chAMdCKNeQY-6" value="Gestion d&#39;utilisateurs" style="ellipse;whiteSpace=wrap;html=1;fillColor=#b0e3e6;strokeColor=#0e8088;" parent="1" vertex="1">
          <mxGeometry x="644" y="17" width="120" height="80" as="geometry" />
        </mxCell>
        <mxCell id="6cKIcrpC0chAMdCKNeQY-7" value="Gestion des cadeaux" style="ellipse;whiteSpace=wrap;html=1;fillColor=#b0e3e6;strokeColor=#0e8088;" parent="1" vertex="1">
          <mxGeometry x="644" y="127" width="120" height="80" as="geometry" />
        </mxCell>
        <mxCell id="6cKIcrpC0chAMdCKNeQY-8" value="Saisir données" style="ellipse;whiteSpace=wrap;html=1;fillColor=#d0cee2;strokeColor=#56517e;" parent="1" vertex="1">
          <mxGeometry x="644" y="592" width="120" height="80" as="geometry" />
        </mxCell>
        <mxCell id="6cKIcrpC0chAMdCKNeQY-9" value="&lt;div&gt;Données enregistrées&lt;/div&gt;" style="ellipse;whiteSpace=wrap;html=1;fillColor=#bac8d3;strokeColor=#23445d;" parent="1" vertex="1">
          <mxGeometry x="644" y="477" width="120" height="80" as="geometry" />
        </mxCell>
        <mxCell id="6cKIcrpC0chAMdCKNeQY-45" style="edgeStyle=orthogonalEdgeStyle;rounded=0;orthogonalLoop=1;jettySize=auto;html=1;strokeColor=#EA6B66;" parent="1" source="6cKIcrpC0chAMdCKNeQY-10" target="6cKIcrpC0chAMdCKNeQY-25" edge="1">
          <mxGeometry relative="1" as="geometry" />
        </mxCell>
        <mxCell id="6cKIcrpC0chAMdCKNeQY-10" value="" style="shape=actor;whiteSpace=wrap;html=1;fillColor=#f8cecc;gradientColor=#ea6b66;strokeColor=#b85450;" parent="1" vertex="1">
          <mxGeometry x="160" y="160" width="40" height="60" as="geometry" />
        </mxCell>
        <mxCell id="6cKIcrpC0chAMdCKNeQY-46" style="edgeStyle=orthogonalEdgeStyle;rounded=0;orthogonalLoop=1;jettySize=auto;html=1;entryX=0.5;entryY=1;entryDx=0;entryDy=0;" parent="1" source="6cKIcrpC0chAMdCKNeQY-11" target="6cKIcrpC0chAMdCKNeQY-25" edge="1">
          <mxGeometry relative="1" as="geometry" />
        </mxCell>
        <mxCell id="6cKIcrpC0chAMdCKNeQY-11" value="" style="shape=actor;whiteSpace=wrap;html=1;fillColor=#ffcd28;gradientColor=#ffa500;strokeColor=#d79b00;" parent="1" vertex="1">
          <mxGeometry x="160" y="450" width="40" height="60" as="geometry" />
        </mxCell>
        <mxCell id="6cKIcrpC0chAMdCKNeQY-12" value="Agent" style="rounded=0;whiteSpace=wrap;html=1;fillColor=none;fontStyle=7;strokeColor=none;" parent="1" vertex="1">
          <mxGeometry x="140" y="508" width="80" height="30" as="geometry" />
        </mxCell>
        <mxCell id="6cKIcrpC0chAMdCKNeQY-14" value="Admin" style="rounded=0;whiteSpace=wrap;html=1;fillColor=none;fontStyle=7;strokeColor=none;" parent="1" vertex="1">
          <mxGeometry x="140" y="219" width="80" height="30" as="geometry" />
        </mxCell>
        <mxCell id="6cKIcrpC0chAMdCKNeQY-47" style="edgeStyle=orthogonalEdgeStyle;rounded=0;orthogonalLoop=1;jettySize=auto;html=1;entryX=0;entryY=0.5;entryDx=0;entryDy=0;strokeColor=#EA6B66;" parent="1" source="6cKIcrpC0chAMdCKNeQY-25" target="6cKIcrpC0chAMdCKNeQY-6" edge="1">
          <mxGeometry relative="1" as="geometry">
            <Array as="points">
              <mxPoint x="577" y="300" />
              <mxPoint x="577" y="57" />
            </Array>
          </mxGeometry>
        </mxCell>
        <mxCell id="6cKIcrpC0chAMdCKNeQY-55" value="CRUD" style="edgeLabel;html=1;align=center;verticalAlign=middle;resizable=0;points=[];" parent="6cKIcrpC0chAMdCKNeQY-47" vertex="1" connectable="0">
          <mxGeometry x="0.7319" y="1" relative="1" as="geometry">
            <mxPoint x="8" as="offset" />
          </mxGeometry>
        </mxCell>
        <mxCell id="6cKIcrpC0chAMdCKNeQY-48" style="edgeStyle=orthogonalEdgeStyle;rounded=0;orthogonalLoop=1;jettySize=auto;html=1;entryX=0;entryY=0.5;entryDx=0;entryDy=0;strokeColor=#EA6B66;" parent="1" source="6cKIcrpC0chAMdCKNeQY-25" target="6cKIcrpC0chAMdCKNeQY-7" edge="1">
          <mxGeometry relative="1" as="geometry">
            <Array as="points">
              <mxPoint x="577" y="300" />
              <mxPoint x="577" y="167" />
            </Array>
          </mxGeometry>
        </mxCell>
        <mxCell id="6cKIcrpC0chAMdCKNeQY-54" value="CRUD" style="edgeLabel;html=1;align=center;verticalAlign=middle;resizable=0;points=[];" parent="6cKIcrpC0chAMdCKNeQY-48" vertex="1" connectable="0">
          <mxGeometry x="0.6798" y="1" relative="1" as="geometry">
            <mxPoint as="offset" />
          </mxGeometry>
        </mxCell>
        <mxCell id="6cKIcrpC0chAMdCKNeQY-50" style="edgeStyle=orthogonalEdgeStyle;rounded=0;orthogonalLoop=1;jettySize=auto;html=1;entryX=0;entryY=0.5;entryDx=0;entryDy=0;strokeColor=#EA6B66;" parent="1" source="6cKIcrpC0chAMdCKNeQY-25" target="6cKIcrpC0chAMdCKNeQY-9" edge="1">
          <mxGeometry relative="1" as="geometry">
            <Array as="points">
              <mxPoint x="577" y="300" />
              <mxPoint x="577" y="517" />
            </Array>
          </mxGeometry>
        </mxCell>
        <mxCell id="6cKIcrpC0chAMdCKNeQY-25" value="Connexion" style="ellipse;whiteSpace=wrap;html=1;fillColor=#fff2cc;strokeColor=#d6b656;" parent="1" vertex="1">
          <mxGeometry x="390" y="280" width="120" height="80" as="geometry" />
        </mxCell>
        <mxCell id="6cKIcrpC0chAMdCKNeQY-56" value="" style="edgeStyle=orthogonalEdgeStyle;rounded=0;orthogonalLoop=1;jettySize=auto;html=1;strokeColor=#EA6B66;" parent="1" source="6cKIcrpC0chAMdCKNeQY-27" target="6cKIcrpC0chAMdCKNeQY-9" edge="1">
          <mxGeometry relative="1" as="geometry" />
        </mxCell>
        <mxCell id="6cKIcrpC0chAMdCKNeQY-57" value="Action" style="edgeLabel;html=1;align=center;verticalAlign=middle;resizable=0;points=[];" parent="6cKIcrpC0chAMdCKNeQY-56" vertex="1" connectable="0">
          <mxGeometry x="-0.0889" y="1" relative="1" as="geometry">
            <mxPoint as="offset" />
          </mxGeometry>
        </mxCell>
        <mxCell id="6cKIcrpC0chAMdCKNeQY-27" value="&lt;div&gt;Traitement:&lt;/div&gt;&lt;div&gt;- &lt;font color=&quot;#8c6f18&quot;&gt;En cours&lt;/font&gt;&lt;/div&gt;&lt;div&gt;- &lt;font color=&quot;#00cc00&quot;&gt;Clôturé&lt;/font&gt;&lt;/div&gt;&lt;div&gt;- &lt;font color=&quot;#ff6666&quot;&gt;Annulé&lt;/font&gt;&lt;br&gt;&lt;/div&gt;" style="rhombus;whiteSpace=wrap;html=1;" parent="1" vertex="1">
          <mxGeometry x="630" y="242" width="148" height="140" as="geometry" />
        </mxCell>
        <mxCell id="6cKIcrpC0chAMdCKNeQY-49" style="edgeStyle=orthogonalEdgeStyle;rounded=0;orthogonalLoop=1;jettySize=auto;html=1;entryX=0.099;entryY=0.412;entryDx=0;entryDy=0;strokeColor=#EA6B66;entryPerimeter=0;" parent="1" source="6cKIcrpC0chAMdCKNeQY-25" target="6cKIcrpC0chAMdCKNeQY-27" edge="1">
          <mxGeometry relative="1" as="geometry">
            <Array as="points">
              <mxPoint x="570" y="300" />
            </Array>
          </mxGeometry>
        </mxCell>
        <mxCell id="6cKIcrpC0chAMdCKNeQY-52" style="edgeStyle=orthogonalEdgeStyle;rounded=0;orthogonalLoop=1;jettySize=auto;html=1;entryX=0.05;entryY=0.787;entryDx=0;entryDy=0;entryPerimeter=0;" parent="1" source="6cKIcrpC0chAMdCKNeQY-25" target="6cKIcrpC0chAMdCKNeQY-9" edge="1">
          <mxGeometry relative="1" as="geometry">
            <Array as="points">
              <mxPoint x="550" y="320" />
              <mxPoint x="550" y="540" />
            </Array>
          </mxGeometry>
        </mxCell>
        <mxCell id="6cKIcrpC0chAMdCKNeQY-58" value="&lt;div&gt;Modifier si&lt;/div&gt;&lt;div&gt;action en cours&lt;br&gt;&lt;/div&gt;" style="edgeLabel;html=1;align=center;verticalAlign=middle;resizable=0;points=[];" parent="6cKIcrpC0chAMdCKNeQY-52" vertex="1" connectable="0">
          <mxGeometry x="0.5611" relative="1" as="geometry">
            <mxPoint x="23" y="-2" as="offset" />
          </mxGeometry>
        </mxCell>
        <mxCell id="6cKIcrpC0chAMdCKNeQY-53" style="edgeStyle=orthogonalEdgeStyle;rounded=0;orthogonalLoop=1;jettySize=auto;html=1;entryX=0.001;entryY=0.718;entryDx=0;entryDy=0;entryPerimeter=0;" parent="1" source="6cKIcrpC0chAMdCKNeQY-25" target="6cKIcrpC0chAMdCKNeQY-8" edge="1">
          <mxGeometry relative="1" as="geometry">
            <Array as="points">
              <mxPoint x="550" y="320" />
              <mxPoint x="550" y="649" />
            </Array>
          </mxGeometry>
        </mxCell>
        <mxCell id="6cKIcrpC0chAMdCKNeQY-59" value="CREER" style="edgeLabel;html=1;align=center;verticalAlign=middle;resizable=0;points=[];" parent="6cKIcrpC0chAMdCKNeQY-53" vertex="1" connectable="0">
          <mxGeometry x="0.7083" y="-1" relative="1" as="geometry">
            <mxPoint x="10" y="-3" as="offset" />
          </mxGeometry>
        </mxCell>
      </root>
    </mxGraphModel>
  </diagram>
</mxfile>
